<svg width="31" height="31" viewBox="0 0 31 31" fill="none" xmlns="http://www.w3.org/2000/svg">
<g clip-path="url(#clip0_63_640)">
<path d="M29.4274 23.7576C29.4654 23.7786 29.5034 23.7996 29.6077 23.8586H29.3805C29.3959 23.8246 29.412 23.7915 29.4274 23.7576Z" fill="#EDEDEC"/>
<path d="M29.5035 28.8223H29.6539C29.5827 28.8796 29.5439 28.9095 29.5059 28.9402C29.5051 28.9006 29.5035 28.8619 29.5027 28.8223H29.5035Z" fill="#EDEDED"/>
<path d="M29.7897 31H1.16349C0.28868 30.6533 -0.00400135 30.0093 4.12171e-05 29.0784C0.0267221 22.8993 0.0137859 16.7201 0.0137859 10.541C0.0137859 10.4602 -0.00804391 10.3713 0.018637 10.301C0.0728074 10.1596 0.118084 9.97858 0.22885 9.9002C1.56047 8.94993 2.90099 8.01179 4.24554 7.08011C4.53984 6.87567 4.69508 6.65831 4.67405 6.26236C4.63039 5.43815 4.65707 4.6099 4.66435 3.78327C4.66597 3.60792 4.67163 3.41965 4.73469 3.26046C4.93197 2.7627 5.33623 2.59382 5.85044 2.59624C7.32274 2.60352 8.79504 2.60109 10.2673 2.59624C10.4032 2.59624 10.5665 2.59059 10.67 2.51948C11.4542 1.97889 12.2361 1.43427 13.0001 0.865403C14.3342 -0.128498 15.7879 -0.258594 17.2416 0.440369C18.135 0.870251 18.9233 1.52719 19.7334 2.11626C20.1652 2.43059 20.5815 2.63099 21.1451 2.6124C22.4646 2.56877 23.7865 2.59705 25.1076 2.59867C25.9266 2.59948 26.3527 3.02613 26.3543 3.84064C26.3551 4.74808 26.3487 5.65552 26.3616 6.56215C26.3632 6.68255 26.4247 6.8482 26.516 6.91284C27.7547 7.79766 29.0071 8.66308 30.2473 9.54547C30.5157 9.73617 30.751 9.97292 31.0017 10.1887V29.8509C30.7445 30.3883 30.367 30.7988 29.7913 31.0008L29.7897 31ZM18.5182 2.59705C18.5465 2.59624 18.5748 2.59544 18.6031 2.59382C18.5837 2.58089 18.5651 2.56877 18.5457 2.55584C18.0525 2.20272 17.5795 1.81405 17.058 1.5078C16.7233 1.31145 16.3247 1.16438 15.9399 1.12155C15.0537 1.02297 14.2121 1.17731 13.4933 1.77446C13.1602 2.05081 12.7972 2.29161 12.3824 2.59624H18.5182V2.59705ZM26.4093 8.1233L26.36 8.09259C26.36 8.10795 26.36 8.1233 26.3608 8.13785C26.3608 9.76606 26.3608 11.3951 26.3608 13.0233C26.3608 13.0379 26.36 13.0532 26.3592 13.0678C26.3745 13.0564 26.3891 13.0459 26.4045 13.0346C27.4668 12.1555 28.5292 11.2763 29.6086 10.3826C28.5308 9.62223 27.4693 8.87236 26.4077 8.12249L26.4093 8.1233ZM4.65303 8.13785V8.0934C4.63848 8.10391 4.62231 8.11441 4.60695 8.12411C4.57703 8.12815 4.54065 8.12249 4.51882 8.13785C3.48231 8.8764 2.44741 9.61738 1.39473 10.3697C1.46749 10.4481 1.52732 10.5281 1.6017 10.5895C2.29379 11.1648 2.98669 11.7401 3.68363 12.3098C3.98682 12.5571 4.30052 12.7922 4.60937 13.0322C4.62393 13.0435 4.63848 13.054 4.65303 13.0653C4.65303 13.0508 4.65222 13.0362 4.65142 13.0217C4.65142 11.3935 4.65142 9.76526 4.65142 8.13704L4.65303 8.13785ZM1.05515 29.2433C1.06081 29.2772 1.06728 29.3112 1.07294 29.3451C1.1069 29.3136 1.14166 29.2821 1.17562 29.2506C1.71409 28.7972 2.25175 28.3423 2.79184 27.8898C3.27694 27.4833 3.76286 27.0769 4.25039 26.6737C4.81554 26.2058 5.38554 25.7436 5.9507 25.275C6.46168 24.8507 6.967 24.42 7.47878 23.9966C8.02777 23.5425 8.58079 23.0932 9.13138 22.6415C9.67551 22.1955 10.2213 21.7519 10.7622 21.3018C11.1033 21.0173 11.4373 20.724 11.8051 20.4081C11.5246 20.1794 11.2707 19.9774 11.0225 19.7689C10.3611 19.213 9.70624 18.6506 9.04083 18.0987C8.27921 17.4668 7.50547 16.8494 6.74465 16.2167C5.95797 15.563 5.18423 14.8948 4.39754 14.241C3.32545 13.349 2.2469 12.4633 1.17077 11.5753C1.14328 11.5575 1.11579 11.5389 1.0883 11.5211C1.07698 11.5413 1.06566 11.5607 1.05515 11.5809C1.05192 11.6512 1.04707 11.7215 1.04707 11.7918C1.04707 17.5387 1.04707 23.2855 1.04707 29.0316C1.04707 29.1019 1.05272 29.1722 1.05515 29.2425V29.2433ZM29.9595 11.5809C29.9482 11.5615 29.9377 11.5413 29.9263 11.522C29.8988 11.5405 29.8722 11.5583 29.8447 11.5769C29.5051 11.8484 29.1615 12.1159 28.8259 12.393C28.2818 12.8423 27.7434 13.2997 27.2 13.7497C26.5605 14.2798 25.9153 14.8042 25.2766 15.3359C24.7349 15.7868 24.2004 16.2474 23.6579 16.6983C23.0103 17.2357 22.3562 17.7658 21.7054 18.2999C21.1394 18.7653 20.5718 19.2291 20.0091 19.6986C19.7302 19.9313 19.4593 20.1737 19.1763 20.4194C19.3655 20.5858 19.5329 20.741 19.7083 20.8864C20.3867 21.4488 21.0675 22.0096 21.749 22.5696C22.277 23.0035 22.8082 23.4342 23.3345 23.8706C23.877 24.3206 24.4163 24.7764 24.9556 25.2305C25.4868 25.6774 26.0139 26.1291 26.5484 26.5727C27.3342 27.2248 28.1234 27.8736 28.9141 28.5193C29.2181 28.7681 29.5302 29.0065 29.839 29.2497C29.873 29.2813 29.9069 29.3128 29.9401 29.3435C29.9457 29.3095 29.9522 29.2764 29.9579 29.2425C29.9611 29.1722 29.966 29.1019 29.966 29.0316C29.966 23.2847 29.966 17.5387 29.966 11.7918C29.966 11.7215 29.9603 11.6512 29.9579 11.5809H29.9595ZM28.8203 29.9584C28.8753 29.9624 28.9302 29.9657 29.0345 29.9729C28.9715 29.9164 28.9464 29.8938 28.9214 29.8711C28.737 29.7225 28.5494 29.577 28.3675 29.4251C27.8274 28.9726 27.293 28.5128 26.7497 28.0635C26.1093 27.5334 25.4593 27.0155 24.8198 26.4838C24.156 25.9319 23.5043 25.3663 22.8397 24.8152C22.0773 24.1833 21.3035 23.5643 20.5411 22.9324C19.8765 22.3813 19.2208 21.8189 18.5627 21.2606C18.4131 21.1337 18.2862 21.1264 18.1269 21.2646C17.9434 21.4238 17.742 21.57 17.5302 21.6888C16.7314 22.1373 15.859 22.3312 14.9591 22.2124C14.1377 22.1042 13.3866 21.7688 12.7551 21.2032C12.7099 21.1628 12.5756 21.1547 12.5296 21.1911C12.1633 21.4779 11.8084 21.7793 11.451 22.0775C10.9093 22.5284 10.3692 22.9817 9.82671 23.4318C9.30845 23.8609 8.78534 24.2851 8.2687 24.7158C7.72781 25.1667 7.19419 25.6265 6.65248 26.0757C6.00406 26.6139 5.34916 27.144 4.6975 27.6789C4.13154 28.1435 3.56316 28.6057 3.00286 29.0776C2.6843 29.3451 2.37949 29.6295 2.06903 29.9067C2.05366 29.9212 2.0383 29.9366 2.02213 29.9511C2.03911 29.9536 2.05609 29.956 2.07226 29.9576C2.1523 29.9608 2.23315 29.9673 2.3132 29.9673C11.0678 29.9673 19.8223 29.9673 28.5777 29.9673C28.6586 29.9673 28.7386 29.9616 28.8195 29.9584H28.8203ZM5.70087 3.66206C5.70087 7.06314 5.69925 10.4311 5.70652 13.799C5.70652 13.9025 5.76716 14.0382 5.84559 14.1045C6.57648 14.7299 7.31547 15.3465 8.05768 15.959C8.94543 16.691 9.84288 17.411 10.729 18.1447C11.7146 18.96 12.6654 19.8198 13.6817 20.5947C14.5282 21.2404 15.5008 21.3826 16.5244 20.9988C17.1195 20.7757 17.5812 20.3709 18.0549 19.9645C18.9273 19.217 19.8345 18.5108 20.7206 17.7787C21.3707 17.2413 22.0053 16.687 22.6521 16.1456C23.4809 15.4515 24.3096 14.7566 25.1529 14.0802C25.2952 13.9663 25.3162 13.8604 25.3162 13.7077C25.3138 10.4513 25.3146 7.19404 25.3146 3.93761V3.66287H5.70087V3.66206Z" fill="#020202"/>
<path d="M28.8202 29.9584C28.8541 29.9293 28.8873 29.9002 28.9213 29.8711C28.9463 29.8937 28.9714 29.9163 29.0344 29.9729C28.9301 29.9656 28.8752 29.9624 28.8202 29.9584Z" fill="#E0DEDF"/>
<path d="M1.05505 29.2434C1.09548 29.2458 1.1359 29.2483 1.17552 29.2507C1.14156 29.2822 1.1068 29.3137 1.07284 29.3452C1.06718 29.3113 1.06071 29.2773 1.05505 29.2434Z" fill="#E0DEDE"/>
<path d="M29.8398 29.2507C29.8795 29.2483 29.9191 29.2458 29.9595 29.2434C29.9538 29.2773 29.9474 29.3105 29.9417 29.3444C29.9078 29.3129 29.8738 29.2814 29.8407 29.2507H29.8398Z" fill="#E0DEDE"/>
<path d="M1.17067 11.5762C1.13186 11.5778 1.09386 11.5794 1.05505 11.581C1.06637 11.5608 1.07769 11.5414 1.0882 11.5212C1.11569 11.539 1.14318 11.5576 1.17067 11.5754V11.5762Z" fill="#E0DEDE"/>
<path d="M18.5182 2.59712V2.56722L18.5457 2.55591C18.5651 2.56884 18.5837 2.58096 18.6031 2.59389C18.5748 2.59469 18.5465 2.5955 18.5182 2.59712Z" fill="#8E8B8B"/>
<path d="M29.9586 11.581C29.9206 11.5793 29.8826 11.5777 29.8446 11.5769C29.8721 11.5583 29.8988 11.5406 29.9263 11.522C29.9376 11.5414 29.9481 11.5616 29.9594 11.581H29.9586Z" fill="#E0DEDE"/>
<path d="M4.61011 13.0346L4.62789 13.0168L4.65215 13.0241C4.65215 13.0387 4.65296 13.0532 4.65377 13.0678C4.63921 13.0564 4.62466 13.0459 4.61011 13.0346Z" fill="#B5B2B2"/>
<path d="M26.3616 13.0242C26.3802 13.012 26.3948 13.0153 26.4053 13.0355C26.3899 13.0468 26.3753 13.0573 26.36 13.0686C26.36 13.0541 26.3608 13.0387 26.3616 13.0242Z" fill="#B5B2B2"/>
<path d="M26.4093 8.12421L26.3883 8.1428L26.3608 8.13876C26.3608 8.1234 26.3608 8.10805 26.36 8.09351L26.4093 8.12421Z" fill="#B5B2B2"/>
<path d="M4.65302 8.13868L4.62634 8.14353L4.60693 8.12494C4.6231 8.11444 4.63847 8.10393 4.65464 8.09424C4.65464 8.10878 4.65464 8.12414 4.65383 8.13868H4.65302Z" fill="#B5B2B2"/>
<path d="M2.06977 29.906C2.07381 29.923 2.07462 29.9399 2.07381 29.9577C2.05683 29.9553 2.03985 29.9529 2.02368 29.9513C2.03904 29.9367 2.05441 29.9214 2.07058 29.9068L2.06977 29.906Z" fill="#E0DEDF"/>
<path d="M16.6028 14.0883C16.0999 14.3283 15.6156 14.6297 15.0885 14.797C13.8595 15.1864 12.5182 14.5812 12.1083 13.2875C11.7509 12.1595 12.046 11.1494 12.5918 10.1854C13.0729 9.33536 13.7269 8.617 14.7052 8.37378C15.534 8.16773 16.3587 8.26954 17.0321 8.89901C17.1211 8.98143 17.2181 9.05497 17.3329 9.15032C17.3879 8.93699 17.4162 8.77377 17.4728 8.62105C17.5601 8.38833 17.8512 8.28974 18.1584 8.37217C18.3274 8.41742 18.5028 8.73821 18.4648 8.93295C18.4276 9.12446 18.3913 9.31597 18.3525 9.50667C18.173 10.3769 17.9967 11.248 17.8099 12.1167C17.7259 12.5078 17.6224 12.8948 17.5229 13.2819C17.4404 13.6035 17.5876 13.795 17.9199 13.82C18.8351 13.8903 19.3324 13.3392 19.7536 12.6362C20.5136 11.3684 20.3107 9.43879 19.4318 8.32287C18.7987 7.51967 18.0088 6.9799 17.0127 6.81182C15.4006 6.53951 13.8975 6.86515 12.595 7.87602C11.5771 8.6663 10.7735 9.64484 10.4007 10.9062C10.0304 12.1587 10.2293 13.3409 10.9465 14.4333C11.6547 15.5121 12.7018 16.0389 13.9283 16.3024C14.7885 16.4866 15.6544 16.5836 16.5301 16.5359C17.8027 16.4664 19.0025 16.1456 20.0333 15.3586C20.3115 15.146 20.5387 14.8681 20.7893 14.62C20.9631 14.4487 21.3286 14.4204 21.4927 14.5659C21.7231 14.7703 21.7425 15.062 21.5517 15.306C20.8071 16.2579 19.8134 16.8324 18.6856 17.2082C17.552 17.5864 16.3764 17.6397 15.2057 17.5548C14.1514 17.4781 13.0979 17.2785 12.1358 16.8155C10.9505 16.245 10.0935 15.3319 9.57928 14.1093C9.30923 13.4677 9.15642 12.789 9.1637 12.1054C9.17421 11.122 9.44183 10.179 9.94796 9.33132C10.7395 8.00693 11.8067 6.95323 13.2127 6.28821C13.9897 5.92054 14.8087 5.69914 15.6876 5.70318C16.3659 5.70641 17.0564 5.6854 17.6919 5.91004C18.2748 6.11528 18.8505 6.40618 19.3502 6.76738C20.1862 7.37099 20.7521 8.20732 21.0311 9.21011C21.4919 10.8658 21.314 12.4068 20.2217 13.8023C19.6396 14.5465 18.8853 14.8947 17.9741 14.898C17.3515 14.9004 16.8672 14.5933 16.6004 14.0883H16.6028ZM13.0332 11.9284C12.988 13.5437 13.8029 14.0479 14.7982 13.7893C15.821 13.5235 16.4678 12.7809 16.809 11.8015C17.0095 11.227 17.117 10.625 16.6578 10.0917C16.6521 10.0852 16.6554 10.0707 16.6505 10.0626C16.1994 9.27395 15.327 9.14466 14.736 9.47192C13.634 10.082 13.1141 11.088 13.0324 11.9284H13.0332Z" fill="#030303"/>
</g>
<defs>
<clipPath id="clip0_63_640">
<rect width="31" height="31" fill="white"/>
</clipPath>
</defs>
</svg>
